<?xml version="1.0" encoding="UTF-8"?>
<svg id="Layer_2" data-name="Layer 2" xmlns="http://www.w3.org/2000/svg" viewBox="0 0 453.83 57.18">
  <defs>
    <style>
      .cls-1 {
        fill: #fff;
      }

      .cls-2 {
        fill: #e4531b;
      }
    </style>
  </defs>
  <g id="Layer_1-2" data-name="Layer 1">
    <g>
      <g>
        <path class="cls-1" d="m280,31.21c0-1.88-1.52-3.4-3.4-3.4h-9.52v-3.4c0-1.88,1.53-3.4,3.4-3.4h8.48c1.88,0,3.4-1.52,3.4-3.4s-1.52-3.4-3.4-3.4h-8.48c-5.63,0-10.2,4.58-10.2,10.2v6.8c0,1.88,1.52,3.4,3.4,3.4h9.52v3.4c0,1.57-.71,3.4-2.72,3.4h-13.27c-1.87,0-3.4-1.53-3.4-3.4v-13.6c0-1.88-1.52-3.4-3.4-3.4s-3.4,1.52-3.4,3.4v13.6c0,5.63,4.58,10.2,10.2,10.2h13.27c5.43,0,9.52-4.39,9.52-10.2v-6.8Z"/>
        <path class="cls-1" d="m302.69,31.21c0-1.88-1.52-3.4-3.4-3.4h-10.59c-1.88,0-3.4,1.52-3.4,3.4v10.21c0,3.97-2.33,7.62-5.95,9.28-1.71.78-2.45,2.8-1.67,4.51.57,1.25,1.8,1.98,3.09,1.98.48,0,.96-.1,1.42-.31,6.02-2.77,9.91-8.83,9.91-15.46v-6.8h7.19c1.88,0,3.4-1.52,3.4-3.4Z"/>
        <path class="cls-1" d="m285.56,18.91c.09.2.19.4.31.59.12.18.27.36.42.52.16.15.34.3.52.42.18.12.38.23.58.31.21.09.42.15.64.2.21.04.44.07.66.07s.44-.03.66-.07c.22-.05.43-.12.63-.2.21-.08.4-.18.6-.31.18-.12.36-.27.51-.42.16-.16.3-.34.42-.52.13-.18.23-.38.32-.59.09-.21.15-.42.19-.63.05-.22.07-.45.07-.67s-.02-.44-.07-.66c-.04-.22-.11-.43-.19-.63-.09-.21-.19-.4-.32-.59-.12-.19-.26-.36-.42-.52-.15-.16-.33-.3-.51-.42-.19-.12-.38-.23-.6-.32-.2-.09-.41-.15-.63-.19-.44-.09-.89-.09-1.32,0-.22.04-.43.11-.64.19-.2.09-.4.19-.58.32-.18.12-.36.26-.52.42-.15.15-.3.33-.42.52-.12.18-.22.37-.31.59-.09.2-.15.41-.2.63-.04.22-.06.44-.06.66s.02.45.06.67c.05.21.12.42.2.63Z"/>
        <path class="cls-1" d="m309.87,14.21c-1.88,0-3.4,1.52-3.4,3.4v27.2c0,1.88,1.52,3.4,3.4,3.4s3.4-1.52,3.4-3.4v-27.2c0-1.88-1.52-3.4-3.4-3.4Z"/>
        <path class="cls-1" d="m202.38,21.04h19.18c1.88,0,3.4-1.52,3.4-3.4s-1.52-3.4-3.4-3.4h-19.18c-5.63,0-10.2,4.58-10.2,10.2v6.8c0,1.88,1.52,3.4,3.4,3.4h22.53v3.4c0,1.88-1.53,3.4-3.4,3.4h-28.34c.39-1.07.61-2.23.61-3.43v-10.81c0-1.88-1.52-3.4-3.4-3.4s-3.4,1.52-3.4,3.4v10.81c0,1.88-1.53,3.4-3.4,3.4h-13.6v-14.21c0-1.88-1.52-3.4-3.4-3.4s-3.4,1.52-3.4,3.4v12.98c0,5.62-4.58,10.2-10.2,10.2s-10.2-4.58-10.2-10.2v-12.98c0-1.88-1.52-3.4-3.4-3.4s-3.4,1.52-3.4,3.4v12.98c0,9.38,7.63,17,17,17,6.47,0,12.11-3.64,14.98-8.97h7.44c.1,0,.21.03.31.03h45.81c5.63,0,10.2-4.58,10.2-10.2v-6.8c0-1.88-1.52-3.4-3.4-3.4h-22.53v-3.4c0-1.88,1.53-3.4,3.4-3.4Z"/>
        <path class="cls-1" d="m233.53,14.21c-1.88,0-3.4,1.52-3.4,3.4v27.2c0,1.88,1.52,3.4,3.4,3.4s3.4-1.52,3.4-3.4v-27.2c0-1.88-1.52-3.4-3.4-3.4Z"/>
        <path class="cls-1" d="m171.69,39.04c1.88,0,3.4-1.52,3.4-3.4v-8.44c0-1.88-1.52-3.4-3.4-3.4s-3.4,1.52-3.4,3.4v8.44c0,1.88,1.52,3.4,3.4,3.4Z"/>
        <path class="cls-1" d="m40.88,27.84c1.88,0,3.4-1.52,3.4-3.4s-1.52-3.4-3.4-3.4h-10.35c-.91,0-1.77.36-2.41,1-.64.64-.99,1.51-.99,2.42l.1,15.71c0,5.63-4.58,10.22-10.22,10.22s-10.22-4.58-10.22-10.22v-15.73c0-1.88-1.52-3.4-3.4-3.4s-3.4,1.52-3.4,3.4v15.73c0,9.38,7.64,17.02,17.02,17.02s17.02-7.63,17.02-17.04l-.08-12.31h6.93Z"/>
        <path class="cls-1" d="m15.13,27.26c.18.12.38.23.59.32.21.09.42.15.63.19.22.05.45.07.67.07.89,0,1.77-.36,2.4-1,.63-.62,1-1.51,1-2.4,0-.22-.02-.45-.07-.66-.04-.22-.11-.43-.19-.64-.09-.2-.19-.4-.32-.59-.12-.18-.26-.36-.42-.52-.79-.79-1.97-1.15-3.07-.93-.21.05-.42.12-.63.2-.2.08-.4.18-.59.31-.18.13-.35.27-.52.42-.15.15-.3.34-.42.52-.12.18-.23.38-.31.59-.09.21-.15.42-.2.64-.04.21-.07.44-.07.66,0,.89.36,1.77,1,2.4.16.16.34.3.52.42Z"/>
        <path class="cls-1" d="m42.77,40.62c-.18-.12-.38-.23-.59-.32-.21-.09-.42-.15-.64-.19-1.1-.22-2.27.13-3.06.93-.63.63-1,1.51-1,2.4s.37,1.78,1,2.41c.62.63,1.51,1,2.4,1,.22,0,.44-.03.66-.07.22-.05.43-.11.64-.2.2-.08.4-.18.59-.31.18-.12.36-.27.52-.42.63-.63.99-1.52.99-2.41s-.36-1.77-.99-2.4c-.16-.16-.34-.3-.52-.42Z"/>
        <path class="cls-1" d="m40.22,31.7c-.22.05-.43.12-.63.19-.21.09-.4.19-.59.32-.19.12-.36.27-.52.42-.63.63-1,1.51-1,2.41,0,.22.02.44.07.66.04.21.11.43.19.63.09.21.19.4.32.59.12.19.26.37.42.52.15.16.33.3.52.42.18.13.37.23.59.32.2.09.41.14.63.19.22.05.44.07.66.07.9,0,1.78-.36,2.41-1s1-1.51,1-2.4-.37-1.78-1-2.41c-.8-.79-1.97-1.15-3.07-.93Z"/>
        <path class="cls-1" d="m298.62,46.52c-.21.05-.43.12-.63.2-.2.08-.4.18-.58.31-.19.12-.36.27-.52.42-.63.63-1,1.51-1,2.41,0,.22.02.44.07.66.05.22.1.43.19.63.09.21.19.4.32.59.12.19.27.36.42.52.63.63,1.51,1,2.41,1s1.77-.36,2.4-1c.15-.15.3-.33.42-.52.12-.18.23-.37.32-.59.08-.2.14-.41.19-.63.04-.22.07-.44.07-.66,0-.9-.36-1.78-1-2.41-.79-.79-1.97-1.15-3.07-.93Z"/>
        <path class="cls-1" d="m302.43,40.16c-.09-.21-.19-.4-.32-.59-.12-.19-.27-.36-.42-.52-1.27-1.27-3.54-1.27-4.81,0-.15.15-.3.33-.42.52-.12.18-.23.37-.32.59-.08.2-.14.41-.19.63-.04.22-.07.44-.07.66,0,.9.37,1.78,1,2.41.15.15.33.3.52.42.18.12.38.23.59.31.2.09.42.15.63.2.22.04.44.07.66.07s.45-.03.67-.07c.21-.05.43-.12.63-.2.2-.08.4-.18.59-.31.19-.13.36-.27.52-.42.63-.63,1-1.51,1-2.41,0-.22-.03-.44-.07-.66-.05-.22-.12-.43-.19-.63Z"/>
        <path class="cls-1" d="m96.54,21.01h19.15c1.88,0,3.4-1.52,3.4-3.4s-1.52-3.4-3.4-3.4h-19.15c-5.63,0-10.21,4.58-10.21,10.21v6.81c0,1.88,1.52,3.4,3.4,3.4h22.56v3.41c0,1.88-1.53,3.41-3.41,3.41h-31.02c2.14-2.84,3.43-6.36,3.43-10.19,0-9.37-7.62-16.99-16.99-16.99s-16.99,7.62-16.99,16.99c0,8.66,6.51,15.81,14.9,16.85l-3.27,3.27c-1.33,1.33-1.33,3.48,0,4.81.66.66,1.53,1,2.4,1s1.74-.33,2.4-1l7.93-7.93h37.2c5.63,0,10.21-4.58,10.21-10.21v-6.81c0-1.88-1.52-3.4-3.4-3.4h-22.56v-3.41c0-1.88,1.53-3.41,3.41-3.41Zm-42.43,10.25c0-5.62,4.57-10.19,10.19-10.19s10.19,4.57,10.19,10.19-4.57,10.19-10.19,10.19-10.19-4.57-10.19-10.19Z"/>
      </g>
      <g>
        <path class="cls-2" d="m384.18,42.53h-21.26c-7.81,0-14.17-6.36-14.17-14.17s6.36-14.17,14.17-14.17h21.26c3.91,0,7.09-3.17,7.09-7.09S388.1,0,384.18,0h-21.26c-15.63,0-28.35,12.72-28.35,28.35s12.72,28.35,28.35,28.35h21.26c3.91,0,7.09-3.17,7.09-7.09s-3.17-7.09-7.09-7.09Z"/>
        <path class="cls-2" d="m355.84,28.35c0,3.91,3.17,7.09,7.09,7.09h35.44l7.09-7.09-7.09-7.09h-35.44c-3.91,0-7.09,3.17-7.09,7.09Z"/>
        <path class="cls-2" d="m425.5,18.33h0s-16.25-16.25-16.25-16.25c-2.77-2.77-7.26-2.77-10.02,0-2.77,2.77-2.77,7.26,0,10.02l16.25,16.25-16.24,16.24c-2.77,2.77-2.77,7.26,0,10.02,1.38,1.38,3.2,2.08,5.01,2.08s3.63-.69,5.01-2.08l16.24-16.24,10.02-10.02-10.02-10.03Z"/>
        <path class="cls-2" d="m440.53,23.34l11.22-11.22c2.77-2.77,2.77-7.26,0-10.02-2.77-2.77-7.26-2.77-10.02,0l-11.22,11.22.13.13,9.9,9.9Z"/>
        <path class="cls-2" d="m440.35,33.18l-10.02,10.02,11.4,11.4c1.38,1.38,3.2,2.08,5.01,2.08s3.63-.69,5.01-2.08c2.77-2.77,2.77-7.26,0-10.02l-11.4-11.39Z"/>
      </g>
    </g>
  </g>
</svg>