<?xml version="1.0" encoding="UTF-8"?>
<svg xmlns="http://www.w3.org/2000/svg" id="Layer_2" data-name="Layer 2" viewBox="0 0 36.74 26.14">
  <defs>
    <style>
      .cls-1 {
        fill: #e95e2a;
      }
    </style>
  </defs>
  <g id="Layer_1-2" data-name="Layer 1">
    <g>
      <path class="cls-1" d="m36.74,13.07c0-1.81-1.46-3.27-3.27-3.27h-16.34l-3.27,3.27,3.27,3.27h16.34c1.81,0,3.27-1.46,3.27-3.27Z"></path>
      <path class="cls-1" d="m4.62,17.69h0l7.49,7.49c1.28,1.28,3.35,1.28,4.62,0,1.28-1.28,1.28-3.35,0-4.62l-7.49-7.49,7.49-7.49c1.28-1.28,1.28-3.35,0-4.62-.64-.64-1.47-.96-2.31-.96s-1.67.32-2.31.96l-7.49,7.49L0,13.07l4.62,4.62h0Z"></path>
    </g>
  </g>
</svg>
