<?xml version="1.0" encoding="UTF-8"?>
<svg id="Layer_1" data-name="Layer 1" xmlns="http://www.w3.org/2000/svg" viewBox="0 0 191.94 24.18">
  <defs>
    <style>
      .cls-1 {
        fill: #e95e2a;
      }

      .cls-2 {
        fill: #60beb3;
      }
    </style>
  </defs>
  <g>
    <path class="cls-2" d="m118.42,13.2c0-.79-.64-1.44-1.44-1.44h-4.03v-1.44c0-.79.64-1.44,1.44-1.44h3.59c.79,0,1.44-.64,1.44-1.44s-.64-1.44-1.44-1.44h-3.59c-2.38,0-4.31,1.94-4.31,4.31v2.88c0,.79.64,1.44,1.44,1.44h4.03v1.44c0,.66-.3,1.44-1.15,1.44h-5.61c-.79,0-1.44-.64-1.44-1.44v-5.75c0-.79-.64-1.44-1.44-1.44s-1.44.64-1.44,1.44v5.75c0,2.38,1.94,4.31,4.31,4.31h5.61c2.3,0,4.03-1.86,4.03-4.31v-2.88Z"/>
    <path class="cls-2" d="m128.01,13.2c0-.79-.64-1.44-1.44-1.44h-4.48c-.79,0-1.44.64-1.44,1.44v4.32c0,1.68-.99,3.22-2.52,3.92-.72.33-1.04,1.19-.71,1.91.24.53.76.84,1.31.84.2,0,.41-.04.6-.13,2.55-1.17,4.19-3.74,4.19-6.54v-2.88h3.04c.79,0,1.44-.64,1.44-1.44Z"/>
    <path class="cls-2" d="m120.77,8c.04.09.08.17.13.25.05.08.11.15.18.22.07.06.14.13.22.18.08.05.16.1.25.13.09.04.18.07.27.09.09.02.19.03.28.03s.19-.01.28-.03c.09-.02.18-.05.27-.09.09-.03.17-.08.25-.13.08-.05.15-.11.22-.18.07-.07.13-.14.18-.22.05-.08.1-.16.13-.25.04-.09.06-.18.08-.27.02-.09.03-.19.03-.28s0-.19-.03-.28c-.02-.09-.04-.18-.08-.27-.04-.09-.08-.17-.13-.25-.05-.08-.11-.15-.18-.22-.06-.07-.14-.13-.22-.18-.08-.05-.16-.1-.25-.13-.09-.04-.17-.06-.27-.08-.19-.04-.38-.04-.56,0-.09.02-.18.04-.27.08-.09.04-.17.08-.25.13-.08.05-.15.11-.22.18-.07.07-.13.14-.18.22-.05.08-.09.16-.13.25-.04.09-.06.17-.09.27-.02.09-.02.19-.02.28s0,.19.02.28c.02.09.05.18.09.27Z"/>
    <path class="cls-2" d="m131.05,6.01c-.79,0-1.44.64-1.44,1.44v11.51c0,.79.64,1.44,1.44,1.44s1.44-.64,1.44-1.44V7.45c0-.79-.64-1.44-1.44-1.44Z"/>
    <path class="cls-2" d="m85.59,8.9h8.11c.79,0,1.44-.64,1.44-1.44s-.64-1.44-1.44-1.44h-8.11c-2.38,0-4.31,1.94-4.31,4.31v2.88c0,.79.64,1.44,1.44,1.44h9.53v1.44c0,.79-.64,1.44-1.44,1.44h-11.99c.16-.45.26-.94.26-1.45v-4.57c0-.79-.64-1.44-1.44-1.44s-1.44.64-1.44,1.44v4.57c0,.79-.64,1.44-1.44,1.44h-5.75v-6.01c0-.79-.64-1.44-1.44-1.44s-1.44.64-1.44,1.44v5.49c0,2.38-1.94,4.31-4.31,4.31s-4.31-1.94-4.31-4.31v-5.49c0-.79-.64-1.44-1.44-1.44s-1.44.64-1.44,1.44v5.49c0,3.97,3.23,7.19,7.19,7.19,2.74,0,5.12-1.54,6.34-3.79h3.15s.09.01.13.01h19.38c2.38,0,4.31-1.94,4.31-4.31v-2.88c0-.79-.64-1.44-1.44-1.44h-9.53v-1.44c0-.79.64-1.44,1.44-1.44Z"/>
    <path class="cls-2" d="m98.76,6.01c-.79,0-1.44.64-1.44,1.44v11.51c0,.79.64,1.44,1.44,1.44s1.44-.64,1.44-1.44V7.45c0-.79-.64-1.44-1.44-1.44Z"/>
    <path class="cls-2" d="m72.61,16.51c.79,0,1.44-.64,1.44-1.44v-3.57c0-.79-.64-1.44-1.44-1.44s-1.44.64-1.44,1.44v3.57c0,.79.64,1.44,1.44,1.44Z"/>
    <path class="cls-2" d="m17.29,11.77c.79,0,1.44-.64,1.44-1.44s-.64-1.44-1.44-1.44h-4.38c-.38,0-.75.15-1.02.42-.27.27-.42.64-.42,1.02l.04,6.64c0,2.38-1.94,4.32-4.32,4.32s-4.32-1.94-4.32-4.32v-6.65c0-.79-.64-1.44-1.44-1.44s-1.44.64-1.44,1.44v6.65c0,3.97,3.23,7.2,7.2,7.2s7.2-3.23,7.2-7.21l-.03-5.2h2.93Z"/>
    <path class="cls-2" d="m6.4,11.53c.08.05.16.1.25.13.09.04.18.06.27.08.09.02.19.03.28.03.38,0,.75-.15,1.01-.42.27-.26.42-.64.42-1.01,0-.09,0-.19-.03-.28-.02-.09-.04-.18-.08-.27-.04-.09-.08-.17-.13-.25-.05-.08-.11-.15-.18-.22-.33-.33-.83-.49-1.3-.39-.09.02-.18.05-.27.09-.09.03-.17.08-.25.13-.08.05-.15.11-.22.18-.06.07-.13.14-.18.22-.05.08-.1.16-.13.25-.04.09-.07.18-.09.27-.02.09-.03.19-.03.28,0,.38.15.75.42,1.01.07.07.14.13.22.18Z"/>
    <path class="cls-2" d="m18.09,17.18c-.08-.05-.16-.1-.25-.13-.09-.04-.18-.06-.27-.08-.47-.09-.96.06-1.29.39-.27.27-.42.64-.42,1.01s.15.75.42,1.02c.26.27.64.42,1.01.42.09,0,.19-.01.28-.03.09-.02.18-.05.27-.09.09-.03.17-.08.25-.13.08-.05.15-.11.22-.18.27-.27.42-.64.42-1.02s-.15-.75-.42-1.01c-.07-.07-.14-.13-.22-.18Z"/>
    <path class="cls-2" d="m17.01,13.41c-.09.02-.18.05-.27.08-.09.04-.17.08-.25.13-.08.05-.15.11-.22.18-.27.27-.42.64-.42,1.02,0,.09,0,.19.03.28.02.09.04.18.08.27.04.09.08.17.13.25.05.08.11.15.18.22.06.07.14.13.22.18.08.05.16.1.25.13.09.04.17.06.27.08.09.02.19.03.28.03.38,0,.75-.15,1.02-.42s.42-.64.42-1.01-.15-.75-.42-1.02c-.34-.33-.83-.49-1.3-.39Z"/>
    <path class="cls-2" d="m126.29,19.68c-.09.02-.18.05-.27.09-.09.03-.17.08-.25.13-.08.05-.15.11-.22.18-.27.27-.42.64-.42,1.02,0,.09,0,.19.03.28.02.09.04.18.08.27.04.09.08.17.13.25.05.08.11.15.18.22.27.27.64.42,1.02.42s.75-.15,1.01-.42c.07-.06.13-.14.18-.22.05-.08.1-.16.13-.25.03-.09.06-.17.08-.27.02-.09.03-.19.03-.28,0-.38-.15-.75-.42-1.02-.33-.33-.83-.49-1.3-.39Z"/>
    <path class="cls-2" d="m127.9,16.98c-.04-.09-.08-.17-.13-.25-.05-.08-.11-.15-.18-.22-.54-.54-1.5-.54-2.03,0-.06.07-.13.14-.18.22-.05.08-.1.16-.13.25-.03.09-.06.17-.08.27-.02.09-.03.19-.03.28,0,.38.15.75.42,1.02.06.06.14.13.22.18.08.05.16.1.25.13.09.04.18.07.27.09.09.02.19.03.28.03s.19-.01.28-.03c.09-.02.18-.05.27-.09.09-.03.17-.08.25-.13.08-.05.15-.11.22-.18.27-.27.42-.64.42-1.02,0-.09-.01-.19-.03-.28-.02-.09-.05-.18-.08-.27Z"/>
    <path class="cls-2" d="m40.83,8.88h8.1c.79,0,1.44-.64,1.44-1.44s-.64-1.44-1.44-1.44h-8.1c-2.38,0-4.32,1.94-4.32,4.32v2.88c0,.79.64,1.44,1.44,1.44h9.54v1.44c0,.79-.65,1.44-1.44,1.44h-13.12c.91-1.2,1.45-2.69,1.45-4.31,0-3.96-3.22-7.19-7.19-7.19s-7.19,3.22-7.19,7.19c0,3.66,2.76,6.69,6.3,7.12l-1.38,1.38c-.56.56-.56,1.47,0,2.03.28.28.65.42,1.02.42s.74-.14,1.02-.42l3.36-3.36h15.73c2.38,0,4.32-1.94,4.32-4.32v-2.88c0-.79-.64-1.44-1.44-1.44h-9.54v-1.44c0-.79.65-1.44,1.44-1.44Zm-17.95,4.33c0-2.38,1.93-4.31,4.31-4.31s4.31,1.93,4.31,4.31-1.93,4.31-4.31,4.31-4.31-1.93-4.31-4.31Z"/>
  </g>
  <g>
    <path class="cls-1" d="m162.48,17.99h-8.99c-3.31,0-5.99-2.69-5.99-5.99s2.69-5.99,5.99-5.99h8.99c1.66,0,3-1.34,3-3S164.13,0,162.48,0h-8.99c-6.61,0-11.99,5.38-11.99,11.99s5.38,11.99,11.99,11.99h8.99c1.66,0,3-1.34,3-3s-1.34-3-3-3Z"/>
    <path class="cls-1" d="m150.49,11.99c0,1.66,1.34,3,3,3h14.99l3-3-3-3h-14.99c-1.66,0-3,1.34-3,3Z"/>
    <path class="cls-1" d="m179.95,7.75h0s-6.87-6.87-6.87-6.87c-1.17-1.17-3.07-1.17-4.24,0-1.17,1.17-1.17,3.07,0,4.24l6.87,6.87-6.87,6.87c-1.17,1.17-1.17,3.07,0,4.24.59.59,1.35.88,2.12.88s1.53-.29,2.12-.88l6.87-6.87,4.24-4.24-4.24-4.24Z"/>
    <path class="cls-1" d="m186.31,9.87l4.75-4.75c1.17-1.17,1.17-3.07,0-4.24-1.17-1.17-3.07-1.17-4.24,0l-4.75,4.75.05.05,4.19,4.19Z"/>
    <path class="cls-1" d="m186.23,14.03l-4.24,4.24,4.82,4.82c.59.59,1.35.88,2.12.88s1.53-.29,2.12-.88c1.17-1.17,1.17-3.07,0-4.24l-4.82-4.82Z"/>
  </g>
</svg>